<svg width="323" height="334" viewBox="0 0 323 334" fill="none" xmlns="http://www.w3.org/2000/svg">
<path d="M232.865 31.8719C236.904 31.8719 240.179 28.5939 240.179 24.5503C240.179 20.5067 236.904 17.2287 232.865 17.2287C228.825 17.2287 225.551 20.5067 225.551 24.5503C225.551 28.5939 228.825 31.8719 232.865 31.8719Z" fill="#CCCCCC"/>
<path d="M189.739 315.198C193.779 315.198 197.053 311.92 197.053 307.876C197.053 303.833 193.779 300.555 189.739 300.555C185.699 300.555 182.425 303.833 182.425 307.876C182.425 311.92 185.699 315.198 189.739 315.198Z" fill="#CCCCCC"/>
<path d="M7.81755 102.331C11.8571 102.331 15.1319 99.0533 15.1319 95.0097C15.1319 90.9661 11.8571 87.6881 7.81755 87.6881C3.77797 87.6881 0.50325 90.9661 0.50325 95.0097C0.50325 99.0533 3.77797 102.331 7.81755 102.331Z" fill="#CCCCCC"/>
<path d="M316.874 86.954L63.3547 10.7495L2.19521 214.623L255.715 290.827L316.874 86.954Z" fill="#CCCCCC"/>
<path d="M164.954 70.4062L225.003 94.7023" stroke="#3F3D56" stroke-width="2" stroke-miterlimit="10"/>
<path d="M166.48 75.4015L167.379 74.9812L165.306 70.5497L169.874 68.8041L169.519 67.8767L163.957 70.0039L166.48 75.4015Z" fill="#3F3D56"/>
<path d="M220.438 97.233L220.083 96.3056L224.65 94.5605L222.577 90.1285L223.477 89.7082L226 95.1068L220.438 97.233Z" fill="#3F3D56"/>
<path d="M194.978 88.0124C197.99 88.0124 200.431 85.5688 200.431 82.5543C200.431 79.5399 197.99 77.0962 194.978 77.0962C191.967 77.0962 189.526 79.5399 189.526 82.5543C189.526 85.5688 191.967 88.0124 194.978 88.0124Z" fill="#3F3D56"/>
<path d="M160.378 238.843L215.699 205.126" stroke="#3F3D56" stroke-width="2" stroke-miterlimit="10"/>
<path d="M165.292 240.599L165.492 239.626L160.703 238.645L162.031 233.936L161.075 233.667L159.46 239.403L165.292 240.599Z" fill="#3F3D56"/>
<path d="M215.002 210.303L214.047 210.034L215.375 205.325L210.585 204.343L210.786 203.371L216.619 204.567L215.002 210.303Z" fill="#3F3D56"/>
<path d="M188.039 227.443C191.05 227.443 193.491 224.999 193.491 221.985C193.491 218.97 191.05 216.526 188.039 216.526C185.027 216.526 182.586 218.97 182.586 221.985C182.586 224.999 185.027 227.443 188.039 227.443Z" fill="#3F3D56"/>
<path d="M90.8719 132.009L90.8915 196.843" stroke="#3F3D56" stroke-width="2" stroke-miterlimit="10"/>
<path d="M86.8183 135.299L87.5445 135.976L90.8711 132.39L94.2007 135.974L94.9264 135.296L90.8706 130.933L86.8183 135.299Z" fill="#3F3D56"/>
<path d="M86.8356 193.556L87.5618 192.879L90.8905 196.462L94.2181 192.877L94.9443 193.553L90.891 197.919L86.8356 193.556Z" fill="#3F3D56"/>
<path d="M90.8817 169.884C93.8931 169.884 96.3344 167.441 96.3344 164.426C96.3344 161.412 93.8931 158.968 90.8817 158.968C87.8703 158.968 85.429 161.412 85.429 164.426C85.429 167.441 87.8703 169.884 90.8817 169.884Z" fill="#3F3D56"/>
<path d="M135.13 0H44.9129V112.14H135.13V0Z" fill="#3F3D56"/>
<path d="M84.381 41.7469H63.9068C62.5096 33.6617 62.5096 25.3963 63.9068 17.3111H84.381C82.0744 25.2927 82.0744 33.7653 84.381 41.7469V41.7469Z" fill="#FF6584"/>
<path d="M95.662 54.1407H116.136C117.533 46.0555 117.533 37.7901 116.136 29.7049H95.662C97.9686 37.6865 97.9686 46.159 95.662 54.1407V54.1407Z" fill="#6C63FF"/>
<path d="M76.3298 94.8285H96.8039C98.2011 86.7433 98.2011 78.4779 96.8039 70.3927H76.3298C78.6363 78.3743 78.6363 86.8469 76.3298 94.8285V94.8285Z" fill="#6C63FF"/>
<path d="M323 106.681H232.783V218.821H323V106.681Z" fill="#3F3D56"/>
<path d="M310.112 130.499H245.671V133.476H310.112V130.499Z" fill="#6C63FF"/>
<path d="M310.112 140.919H245.671V143.896H310.112V140.919Z" fill="#6C63FF"/>
<path d="M310.112 151.339H245.671V154.316H310.112V151.339Z" fill="#6C63FF"/>
<path d="M310.112 161.759H245.671V164.736H310.112V161.759Z" fill="#6C63FF"/>
<path d="M310.112 172.179H245.671V175.156H310.112V172.179Z" fill="#6C63FF"/>
<path d="M294.745 183.095H261.038V195.004H294.745V183.095Z" fill="#6C63FF"/>
<path d="M143.061 221.798H52.8441V333.938H143.061V221.798Z" fill="#3F3D56"/>
<path d="M130.32 284.222H65.8792V287.199H130.32V284.222Z" fill="#6C63FF"/>
<path d="M130.32 294.642H65.8792V297.62H130.32V294.642Z" fill="#6C63FF"/>
<path d="M130.32 305.062H65.8792V308.04H130.32V305.062Z" fill="#6C63FF"/>
<path d="M130.32 315.482H65.8792V318.46H130.32V315.482Z" fill="#6C63FF"/>
<path opacity="0.3" d="M85.6203 261.712H65.1461C63.7489 253.627 63.7489 245.362 65.1461 237.276H85.6203C83.3137 245.258 83.3137 253.731 85.6203 261.712V261.712Z" fill="#6C63FF"/>
<path opacity="0.3" d="M131.807 239.565H94.1341V242.046H131.807V239.565Z" fill="#6C63FF"/>
<path opacity="0.3" d="M131.807 248.496H94.1341V250.977H131.807V248.496Z" fill="#6C63FF"/>
<path opacity="0.3" d="M131.807 257.428H94.1341V259.909H131.807V257.428Z" fill="#6C63FF"/>
<path opacity="0.3" d="M131.807 266.359H94.1341V268.84H131.807V266.359Z" fill="#6C63FF"/>
</svg>