<svg width="264" height="273" viewBox="0 0 264 273" fill="none" xmlns="http://www.w3.org/2000/svg">
<g clip-path="url(#clip0)">
<path d="M189.569 26.002C190.751 26.0032 191.906 25.6539 192.889 24.9983C193.872 24.3427 194.639 23.4102 195.092 22.3189C195.545 21.2276 195.664 20.0265 195.434 18.8674C195.204 17.7084 194.636 16.6435 193.801 15.8076C192.966 14.9716 191.901 14.4022 190.742 14.1712C189.584 13.9403 188.382 14.0582 187.291 14.5101C186.199 14.962 185.266 15.7276 184.609 16.71C183.952 17.6923 183.602 18.8474 183.602 20.029C183.602 20.813 183.756 21.5894 184.055 22.3138C184.355 23.0383 184.794 23.6967 185.348 24.2513C185.903 24.806 186.56 25.246 187.285 25.5464C188.009 25.8468 188.785 26.0016 189.569 26.002V26.002Z" fill="#31313E"/>
<path d="M154.385 257.148C155.567 257.149 156.722 256.8 157.705 256.144C158.688 255.489 159.454 254.556 159.908 253.465C160.361 252.374 160.48 251.173 160.25 250.014C160.02 248.855 159.452 247.79 158.617 246.954C157.782 246.118 156.718 245.548 155.559 245.317C154.4 245.086 153.199 245.204 152.107 245.656C151.016 246.108 150.082 246.873 149.426 247.855C148.769 248.837 148.418 249.992 148.418 251.174C148.417 251.958 148.571 252.735 148.871 253.459C149.171 254.184 149.61 254.842 150.164 255.397C150.718 255.952 151.376 256.392 152.1 256.692C152.825 256.993 153.601 257.148 154.385 257.148V257.148Z" fill="#31313E"/>
<path d="M5.968 83.485C7.14943 83.4854 8.30444 83.1354 9.28696 82.4793C10.2695 81.8233 11.0354 80.8905 11.4878 79.7991C11.9401 78.7078 12.0587 77.5067 11.8285 76.3479C11.5982 75.1892 11.0295 74.1247 10.1943 73.2892C9.35899 72.4536 8.29471 71.8845 7.13601 71.6539C5.9773 71.4233 4.77623 71.5415 3.68469 71.9935C2.59315 72.4455 1.66018 73.2111 1.00377 74.1934C0.347356 75.1757 -0.00300516 76.3306 -0.00300523 77.512C-0.00339937 78.2963 0.150762 79.073 0.450668 79.7978C0.750575 80.5225 1.19035 81.181 1.74486 81.7357C2.29937 82.2904 2.95775 82.7304 3.68237 83.0306C4.407 83.3307 5.18367 83.4851 5.968 83.485V83.485Z" fill="#31313E"/>
<path d="M258.106 70.94L51.276 8.77L1.38499 175.096L208.215 237.266L258.106 70.94Z" fill="#31313E"/>
<path d="M134.165 57.44L183.155 77.262" stroke="#3F3D56" stroke-width="2" stroke-miterlimit="10"/>
<path d="M135.409 61.515L136.142 61.172L134.451 57.557L138.178 56.133L137.888 55.376L133.35 57.111L135.409 61.515Z" fill="#3F3D56"/>
<path d="M179.431 79.326L179.141 78.569L182.867 77.145L181.176 73.529L181.91 73.186L183.968 77.586L179.431 79.326Z" fill="#3F3D56"/>
<path d="M158.659 71.802C159.54 71.803 160.401 71.5427 161.134 71.054C161.867 70.5653 162.439 69.8701 162.777 69.0566C163.114 68.243 163.203 67.3475 163.032 66.4833C162.861 65.6192 162.437 64.8253 161.815 64.202C161.192 63.5788 160.399 63.1542 159.535 62.9819C158.671 62.8097 157.775 62.8976 156.961 63.2345C156.147 63.5714 155.451 64.1421 154.962 64.8745C154.472 65.6069 154.211 66.4681 154.211 67.349C154.21 68.5293 154.679 69.6615 155.513 70.4966C156.347 71.3316 157.479 71.8012 158.659 71.802V71.802Z" fill="#3F3D56"/>
<path d="M130.432 194.856L175.565 167.349" stroke="#3F3D56" stroke-width="2" stroke-miterlimit="10"/>
<path d="M134.441 196.289L134.604 195.495L130.697 194.695L131.78 190.853L131 190.634L129.682 195.314L134.441 196.289Z" fill="#3F3D56"/>
<path d="M174.996 171.572L174.217 171.353L175.3 167.511L171.392 166.711L171.556 165.918L176.315 166.894L174.996 171.572Z" fill="#3F3D56"/>
<path d="M152.999 185.555C153.88 185.556 154.741 185.295 155.474 184.806C156.207 184.318 156.778 183.622 157.116 182.809C157.454 181.995 157.542 181.1 157.371 180.236C157.2 179.372 156.776 178.578 156.153 177.955C155.531 177.332 154.737 176.907 153.873 176.735C153.009 176.563 152.114 176.651 151.3 176.988C150.486 177.324 149.79 177.895 149.301 178.628C148.811 179.36 148.55 180.221 148.55 181.102C148.55 181.687 148.665 182.265 148.888 182.805C149.111 183.346 149.439 183.836 149.852 184.25C150.265 184.663 150.756 184.991 151.296 185.215C151.836 185.439 152.414 185.555 152.999 185.555V185.555Z" fill="#3F3D56"/>
<path d="M73.726 107.697L73.742 160.591" stroke="#3F3D56" stroke-width="2" stroke-miterlimit="10"/>
<path d="M70.419 110.382L71.011 110.934L73.725 108.008L76.441 110.932L77.033 110.379L73.724 106.82L70.419 110.382Z" fill="#3F3D56"/>
<path d="M70.434 157.91L71.026 157.358L73.742 160.281L76.457 157.356L77.049 157.908L73.742 161.47L70.434 157.91Z" fill="#3F3D56"/>
<path d="M73.734 138.598C74.6149 138.599 75.4762 138.338 76.209 137.849C76.9419 137.361 77.5132 136.665 77.8509 135.852C78.1885 135.038 78.2773 134.143 78.1059 133.279C77.9346 132.415 77.5108 131.621 76.8882 130.998C76.2656 130.375 75.4721 129.95 74.6082 129.778C73.7443 129.606 72.8487 129.694 72.0348 130.031C71.2209 130.367 70.5252 130.938 70.0357 131.671C69.5463 132.403 69.285 133.264 69.285 134.145C69.2846 134.73 69.3994 135.308 69.6228 135.849C69.8462 136.389 70.1738 136.88 70.587 137.293C71.0001 137.707 71.4907 138.035 72.0307 138.259C72.5707 138.483 73.1494 138.598 73.734 138.598V138.598Z" fill="#3F3D56"/>
<path d="M109.833 0H36.233V91.488H109.833V0Z" fill="#3F3D56"/>
<path d="M68.43 34.059H51.73C50.5901 27.4626 50.5901 20.7194 51.73 14.123H68.43C66.5478 20.6351 66.5478 27.5469 68.43 34.059V34.059Z" fill="#FF6584"/>
<path d="M77.634 44.169H94.334C95.4738 37.5725 95.4738 30.8295 94.334 24.233H77.634C79.5161 30.7451 79.5161 37.6569 77.634 44.169Z" fill="#6C63FF"/>
<path d="M61.862 77.364H78.562C79.7019 70.7676 79.7019 64.0244 78.562 57.428H61.862C63.7438 63.9401 63.7438 70.8519 61.862 77.364V77.364Z" fill="#6C63FF"/>
<path d="M263.104 87.034H189.504V178.522H263.104V87.034Z" fill="#3F3D56"/>
<path d="M252.589 106.467H200.016V108.896H252.589V106.467Z" fill="#6C63FF"/>
<path d="M252.589 114.967H200.016V117.396H252.589V114.967Z" fill="#6C63FF"/>
<path d="M252.589 123.468H200.016V125.897H252.589V123.468Z" fill="#6C63FF"/>
<path d="M252.589 131.969H200.016V134.398H252.589V131.969Z" fill="#6C63FF"/>
<path d="M252.589 140.469H200.016V142.898H252.589V140.469Z" fill="#6C63FF"/>
<path d="M240.052 149.38H212.552V159.096H240.052V149.38Z" fill="#6C63FF"/>
<path d="M116.304 180.952H42.704V272.44H116.304V180.952Z" fill="#3F3D56"/>
<path d="M105.909 231.878H53.336V234.307H105.909V231.878Z" fill="#6C63FF"/>
<path d="M105.909 240.379H53.336V242.809H105.909V240.379Z" fill="#6C63FF"/>
<path d="M105.909 248.88H53.336V251.31H105.909V248.88Z" fill="#6C63FF"/>
<path d="M105.909 257.381H53.336V259.811H105.909V257.381Z" fill="#6C63FF"/>
<path opacity="0.3" d="M69.442 213.514H52.742C51.6021 206.918 51.6021 200.174 52.742 193.578H69.442C67.5601 200.09 67.5601 207.002 69.442 213.514Z" fill="#6C63FF"/>
<path opacity="0.3" d="M107.122 195.445H76.387V197.469H107.122V195.445Z" fill="#6C63FF"/>
<path opacity="0.3" d="M107.122 202.736H76.387V204.76H107.122V202.736Z" fill="#6C63FF"/>
<path opacity="0.3" d="M107.122 210.019H76.387V212.043H107.122V210.019Z" fill="#6C63FF"/>
<path opacity="0.3" d="M107.122 217.305H76.387V219.329H107.122V217.305Z" fill="#6C63FF"/>
</g>
</svg>